<svg xmlns="http://www.w3.org/2000/svg" version="1.1" xmlns:xlink="http://www.w3.org/1999/xlink" xmlns:svgjs="http://svgjs.dev/svgjs" viewBox="0 0 800 800" opacity="0.92"><defs><linearGradient x1="50%" y1="0%" x2="50%" y2="100%" id="uundulate-grad"><stop stop-color="#c20000" stop-opacity="1" offset="45%"></stop><stop stop-color="#70000e" stop-opacity="1" offset="100%"></stop></linearGradient></defs><g stroke-width="2" stroke="url(#uundulate-grad)" fill="none"><path d="M647.1669223984878 214.88289209802213C697.2572504987176 347.2536868051084 785.6153112973475 604.1262409072904 704.8382839514829 720.3421611322738C624.0612566056185 836.5580813572574 364.9707170826405 843.7619213736391 259.43719113833936 772.7193091779436C153.90366519403835 701.6766969822481 236.63556061418467 540.1761286490608 198.27735941883697 379.3376225929351C159.9191582234892 218.49911653680942 19.874627556598114 62.02266261992986 75.31782540066979 0.6944801085390395C130.76102324474152 -60.63370240285184 345.26948052916805 40.33976070711719 464.40470907038025 84.9623465382594C583.5399376115924 129.5849323694016 597.076594298258 82.51209739093582 647.1669223984878 214.88289209802213C697.2572504987176 347.2536868051084 785.6153112973475 604.1262409072904 704.8382839514829 720.3421611322738 "></path><path d="M637.2802455025483 222.28757153128868C685.3669604787689 349.3635344500915 770.1906988454534 595.9611863881862 692.6447525934236 707.5284698041705C615.0988063413938 819.0957532201546 366.3718883993348 826.0114396358811 265.05970349280585 757.8105319280135C163.74751858627684 689.6096242201456 243.17013818961732 534.5690786202858 206.34626504208347 380.1641128064051C169.52239189454963 225.7591469925244 35.07964245433419 75.54175123232017 88.305112384643 16.66669602138495C141.53058231495186 -42.208359189550265 347.4587013080013 54.72616539602001 461.8285207075651 97.56384779391652C576.1983401071288 140.40153019181304 589.1935305263277 95.21160861248586 637.2802455025483 222.28757153128868C685.3669604787689 349.3635344500915 770.1906988454534 595.9611863881862 692.6447525934236 707.5284698041705 "></path><path d="M627.3935075714525 229.69228148213347C673.476609423664 351.47341261265296 754.7660253584033 587.7961623866603 680.451160200208 694.714808993645C606.1362950420128 801.63345560063 367.7729986808729 808.2609884157009 270.682154812116 742.9017851956614C173.59131094335902 677.5425819756215 249.70465472989372 528.9620591090891 214.4151096301738 380.9906335374534C179.1255645304538 233.0192079658177 50.28459631691402 89.0608703622886 101.29233833345995 32.638942451809044C152.30008035000594 -23.782985458670566 349.6478610516783 69.11260060250095 459.25227130959354 110.16537956715177C568.8566815675088 151.2181585318026 581.3104057192411 107.91115035161408 627.3935075714525 229.69228148213347C673.476609423664 351.47341261265296 754.7660253584033 587.7961623866603 680.451160200208 694.714808993645 "></path><path d="M617.506830675513 237.09696091540013C661.5863194037152 353.5832602576361 739.3414129065095 579.6311078675561 668.2576288421487 681.9011176655415C597.173844777788 784.1711274635272 369.17416999756733 790.5105066779429 276.3046671665825 727.9930079457308C183.4351643355975 665.475509213519 256.23923230532625 523.3550090803142 222.4840152534203 381.81712375092343C188.72879820151422 240.2792384215329 65.48961121465004 102.5799589746789 114.27962531743322 48.611158364654955C163.06963942021628 -5.357642245368993 351.8370818305116 83.49900529140376 456.67608294677825 122.7668808228089C561.5150840630452 162.03475635421398 573.4273419473108 120.61066157316412 617.506830675513 237.09696091540013C661.5863194037152 353.5832602576361 739.3414129065095 579.6311078675561 668.2576288421487 681.9011176655415 "></path><path d="M607.6201537795735 244.50164034866668C649.6960293837665 355.6931079026192 723.9168004546156 571.4660533484521 656.0640974840894 669.0874263374382C588.2113945135633 766.7087993264245 370.57534131426166 772.7600249401848 281.92717952104886 713.0842306958009C193.27901772783594 653.4084364514166 262.7738098807589 517.7479590515392 230.5529208766668 382.6436139643936C198.3320318725747 247.539268877248 80.69462611238612 116.09904758706921 127.26691230140642 64.58337427750092C173.8391984904266 13.06770096793258 354.02630260934484 97.88540998030658 454.0998945839631 135.36838207846603C554.1734865585813 172.85135417662548 565.5442781753804 133.31017279471422 607.6201537795735 244.50164034866668C649.6960293837665 355.6931079026192 723.9168004546156 571.4660533484521 656.0640974840894 669.0874263374382 "></path><path d="M597.7335379187903 251.90631978193335C637.805800398974 357.8029555476023 708.492249037878 563.3009988293479 643.8706271611863 656.2737350093347C579.2490052844948 749.2464711893215 371.97657366611236 755.0095432024268 287.5497529106715 698.1754534458705C203.12293215523067 641.3413636893141 269.3084484913478 512.1409090227643 238.62188753506956 383.47010417786373C207.93532657879138 254.79929933296307 95.8997020452785 129.6181361994595 140.25426032053588 80.55559019034683C184.6088185957932 31.493044181234154 356.21558442333435 112.27181466920939 451.52376725630415 147.96988333412315C546.831950089274 183.66795199903686 557.6612754386065 146.00968401626426 597.7335379187903 251.90631978193335C637.805800398974 357.8029555476023 708.492249037878 563.3009988293479 643.8706271611863 656.2737350093347 "></path><path d="M587.8468305052727 259.3109992151999C625.9154798614472 359.91280319258556 693.067606068406 555.1359443102438 631.6770652855489 643.4600436812312C570.2865245026919 731.7841430522188 373.37771446522856 737.2590614646688 293.1722347475598 683.2666761959404C212.96675502989103 629.2742909272118 275.8429955492022 506.53385899398927 246.69076264073794 384.2965943913339C217.53852973227367 262.05932978867827 111.1046864254364 143.13722481184982 153.24151678693096 96.5278061031928C195.37834714842546 49.91838739453573 358.4047746845895 126.6582193581122 448.94754837591086 160.57138458978028C539.4903220672322 194.48454982144835 549.7781811490979 158.70919523781436 587.8468305052727 259.3109992151999C625.9154798614472 359.91280319258556 693.067606068406 555.1359443102438 631.6770652855489 643.4600436812312 "></path><path d="M577.9601841269113 266.71567864846656C614.0252203590767 362.0226508375687 677.6430241340902 546.9708897911396 619.4835644450677 630.6463523531278C561.3241047560452 714.321814915116 374.77891629950113 719.5085797269107 298.79477761960436 668.3578989460101C222.8106389397076 617.2072181651092 282.377603642213 500.9268089652144 254.75969878156263 385.1230846048038C227.14179392091222 269.31936024439335 126.3097318407506 156.65631342424012 166.2288342884823 112.50002201603871C206.14793673621392 68.3437306078373 360.594025981001 141.04462404701502 446.3713905306738 173.17288584543735C532.1487550803465 205.30114764385974 541.8951478947458 171.4087064593644 577.9601841269113 266.71567864846656C614.0252203590767 362.0226508375687 677.6430241340902 546.9708897911396 619.4835644450677 630.6463523531278 "></path><path d="M568.0735072309717 274.1204191168895C602.1349303391279 364.13255951770816 662.2184116821963 538.8058963071919 607.2900330870084 617.8327220601807C552.3616544918206 696.8595478131695 376.18008761619546 701.7581590243091 304.4172899740708 653.4491827312361C232.65449233194607 605.1402064381632 288.91218121764564 495.31981997159573 262.82860440480914 385.9496358534302C236.74502759197264 276.5794517352648 141.51474673848668 170.17546307178668 179.2161212724555 128.47229896404093C216.91749580642426 86.76913485629512 362.78324675983424 155.43108977107408 443.79520216785863 185.77444813625078C524.8071575758829 216.11780650142748 534.0120841228154 184.10827871607074 568.0735072309717 274.1204191168895C602.1349303391279 364.13255951770816 662.2184116821963 538.8058963071919 607.2900330870084 617.8327220601807 "></path><path d="M558.1868150762432 281.5250680325779C590.2446250603901 366.24237664511315 646.7937839715132 530.6408112705095 595.09648647016 605.019000214499C543.3991889688068 679.3971891584885 377.58124367410085 684.0076467689728 310.0397870697482 638.5403749637276C242.4983304653955 593.0731031584826 295.44674353428917 489.7127394252427 270.8974947692666 386.77609554932224C246.34824600424406 283.83945167340175 156.7197463774337 183.69452116659886 192.20339299763964 144.44448435930872C227.68703961784553 105.19444755201857 364.97245227987844 169.81746394239877 441.2189985462543 198.37591887432973C517.46554481263 226.93437380626074 526.1290050920961 196.80775942004266 558.1868150762432 281.5250680325779C590.2446250603901 366.24237664511315 646.7937839715132 530.6408112705095 595.09648647016 605.019000214499 "></path><path d="M548.3001381803036 288.9297627246336C578.3543350404415 368.35223954888534 631.3691715196194 522.4757720101945 582.9029551121007 592.2053241451847C534.436738704582 661.9348762801748 378.9824149907952 666.2571802900038 315.66229942421455 623.6316129725865C252.34218385763393 581.0060456551693 301.98132110972176 484.1057046552569 278.9664003925131 387.60260102158134C255.95147967530443 291.0994973879059 171.92476127516977 197.21362503777823 205.19067998161285 160.41671553094375C238.45659868805586 123.61980602410921 367.1616730587117 184.20388389009065 438.642810183439 210.97743538877597C510.1239473081664 237.7509868874613 518.2459413201657 209.50728590038182 548.3001381803036 288.9297627246336C578.3543350404415 368.35223954888534 631.3691715196194 522.4757720101945 582.9029551121007 592.2053241451847 "></path><path d="M538.4134765431531 296.3344268991111C566.4640602792819 370.4620719350795 615.9445743265146 514.3107022323013 570.7094390128304 579.3916175582922C525.4743036991463 644.4725328842829 380.3836015662787 648.5066832934567 321.28482703747005 608.7228204638673C262.1860525086615 568.9389576342778 308.5159139439434 478.4986393676928 287.03532127454866 388.4290759762624C265.55472860515397 298.35951258483203 187.1297914316949 210.73269839137947 218.1779822243751 176.3889161850006C249.22617301705526 142.04513397862172 369.35090909633414 198.5902733202044 436.0666370794129 223.57892138564398C502.78236506249175 248.5675694510836 510.36289280702454 222.2067818631428 538.4134765431531 296.3344268991111C566.4640602792819 370.4620719350795 615.9445743265146 514.3107022323013 570.7094390128304 579.3916175582922 "></path><path d="M528.5267843884246 303.7391063323778C554.573755000544 372.5719195800626 600.5199466158316 506.14564771319726 558.5158923959821 566.5779262301887C516.5118381761325 627.0102047471801 381.78475762418395 630.7562015556986 326.9073241331474 593.8140432139369C272.0298906421109 556.8718848721753 315.050476260587 472.8915893389178 295.10421163900617 389.25556618973246C275.15794701742533 305.6195430405471 202.33479107064193 224.25178700376978 231.16525394955926 192.36113209784656C259.99571682847653 160.4704771919233 371.54011461637833 212.97667800910722 433.49043345780865 236.1804226413011C495.44075229923897 259.3841672734951 502.47981377630504 234.9062930846929 528.5267843884246 303.7391063323778C554.573755000544 372.5719195800626 600.5199466158316 506.14564771319726 558.5158923959821 566.5779262301887 "></path><path d="M518.6401227512741 311.14381628322246C542.6834802393844 374.68179774262387 585.0953494227267 497.9806237116712 546.3223762967118 553.7642654196634C507.5494031706969 609.5479071276554 383.1859441996674 613.0057503355187 332.5298517464029 578.9052964815849C281.8737592931384 544.8048426276509 321.58506909480866 467.28456982772104 303.17313252104174 390.08208692078074C284.7611959472748 312.8796040138403 217.53982122716707 237.7709061337382 244.15255619232153 208.3333785282706C270.76529115747593 178.895850922803 373.72935065400065 227.3631132155881 430.91426035378254 248.78195441453636C488.0991700535644 270.2007956134846 494.5967652631639 247.60583482382106 518.6401227512741 311.14381628322246C542.6834802393844 374.68179774262387 585.0953494227267 497.9806237116712 546.3223762967118 553.7642654196634 "></path><path d="M508.7534458553346 318.54848045770007C530.7931902194357 376.79163012881804 569.6707369708329 489.8155539337781 534.1288449386525 540.9505588327708C498.5869529064721 592.0855637317636 384.5871155163618 595.2552533389714 338.15236410086936 563.9965039728654C291.7176126853769 532.7377546067595 328.11964667024125 461.6775045401571 311.24203814428824 390.9085618754617C294.36442961833524 320.13961921076645 232.74483612490314 251.28997948733945 257.13984317629473 224.3055791823275C281.53485022768626 197.3211788773155 375.9185714328339 241.74950264570185 428.33807199096725 261.3834404114044C480.7575725491007 281.017378177107 486.71370149123345 260.3053307865821 508.7534458553346 318.54848045770007C530.7931902194357 376.79163012881804 569.6707369708329 489.8155539337781 534.1288449386525 540.9505588327708 "></path><path d="M498.86676895939513 325.9531598909667C518.902900199487 378.90147777380116 554.246124518939 481.65049941467396 521.9353135805932 528.1368675046674C489.6245026422474 574.6232355946607 385.9882868330562 577.5047716012134 343.77487645533574 549.0877267229353C301.56146607761536 520.6706818446571 334.6542242456739 456.0704545113822 319.3109437675348 391.73505208893187C303.96766328939566 327.39964966648154 247.94985102263922 264.80906809972976 270.12713016026794 240.27779509517342C292.3044092978966 215.74652209061708 378.1077922116672 256.13590733460467 425.7618836281521 273.98494166706155C473.415975044637 291.83397599951843 478.83063771930324 273.00484200813213 498.86676895939513 325.9531598909667C518.902900199487 378.90147777380116 554.246124518939 481.65049941467396 521.9353135805932 528.1368675046674 "></path><path d="M488.9800920634557 333.3578393242333C507.01261017953834 381.01132541878434 538.8215120670451 473.4854448955698 509.74178222253386 515.323176176564C480.6620523780226 557.160907457558 387.38945814975057 559.7542898634554 349.3973888098022 534.1789494730051C311.4053194698538 508.6036090825546 341.1888018211065 450.4634044826072 327.3798493907813 392.5615423024019C313.57089696045614 334.6596801221967 263.1548659203753 278.32815671212006 283.11441714424114 256.2500110080194C303.07396836810693 234.17186530391865 380.2970129905005 270.5223120235075 423.1856952653369 286.5864429227187C466.07437754017326 302.65057382192987 470.9475739473729 285.70435322968217 488.9800920634557 333.3578393242333C507.01261017953834 381.01132541878434 538.8215120670451 473.4854448955698 509.74178222253386 515.323176176564 "></path><path d="M479.0934151675161 340.762549275078C495.12232015958966 383.12120358134564 523.3968996151511 465.32042089404376 497.54825086447454 502.5095153660386C471.69960211379794 539.6986098380332 388.79062946644495 542.0038386432755 355.0199011642686 519.2702027406528C321.2491728620923 496.53656683803035 347.7233793965391 444.8563849714104 335.4487550140278 393.3880630334502C323.17413063151656 341.91974109548994 278.3598808181114 291.8472758420885 296.10170412821435 272.2222574384434C313.84352743831727 252.59723903479835 382.48623376933375 284.9087472299884 420.6095069025217 299.1879746959539C458.73278003570954 313.46720216191943 463.0645101754426 298.4038949688104 479.0934151675161 340.762549275078C495.12232015958966 383.12120358134564 523.3968996151511 465.32042089404376 497.54825086447454 502.5095153660386 "></path><path d="M469.20673827157657 348.1672287083446C483.232030139641 385.2310512263288 507.9722871632573 457.1553663749397 485.3547195064152 489.69582403793515C462.73715184957314 522.2362817009305 390.19180078313934 524.2533569055174 360.642413518735 504.3614254907227C331.09302625433077 484.46949407592797 354.25795697197174 439.2493349426354 343.51766063727433 394.2145532469203C332.777364302577 349.1797715512051 293.56489571584746 305.3663644544788 309.08899111218756 288.1944733512894C324.61308650852766 271.0225822480999 384.67545454816707 299.29515191889124 418.03331853970644 311.78947595161105C451.3911825312459 324.28379998433087 455.18144640351227 311.1034061903605 469.20673827157657 348.1672287083446C483.232030139641 385.2310512263288 507.9722871632573 457.1553663749397 485.3547195064152 489.69582403793515 "></path><path d="M459.320046116848 355.57190814161123C471.3417248609031 387.34089887131194 492.5476594525743 448.9903118558356 473.16117288956684 476.8821327098317C453.7746863265594 504.7739535638277 391.5929568410446 506.5028751677594 366.2649106144124 489.4526482407924C340.93686438778013 472.40242131382547 360.79251928861527 433.6422849138605 351.5865510017318 395.04104346039037C342.38058271484834 356.43980200692016 308.76989535479447 318.8854530668691 322.0762628373717 304.1666892641353C335.38263031994893 289.4479254614015 386.86466006821126 313.68155660779405 415.4571149181022 324.3909772072682C444.04956976799315 335.1003978067423 447.2983673727929 323.8029174119105 459.320046116848 355.57190814161123C471.3417248609031 387.34089887131194 492.5476594525743 448.9903118558356 473.16117288956684 476.8821327098317 "></path><path d="M449.4333692209085 362.97658757487784C459.45143484095445 389.4507465162951 477.12304700068046 440.8252573367315 460.9676415315075 464.06844138172823C444.81223606233465 487.31162542672496 392.994128157739 488.75239343000123 371.8874229688788 474.54387099086216C350.7807177800186 460.3353485517231 367.32709686404786 428.03523488508563 359.65545662497834 395.86753367386046C351.98381638590877 363.6998324626353 323.97491025253055 332.4045416792594 335.0635498213449 320.13890517698127C346.15218939015926 307.87326867470307 389.0538808470445 328.06796129669686 412.880926555287 336.9924784629253C436.7079722635294 345.91699562915375 439.41530360086256 336.50242863346057 449.4333692209085 362.97658757487784C459.45143484095445 389.4507465162951 477.12304700068046 440.8252573367315 460.9676415315075 464.06844138172823 "></path><path d="M439.54670758375806 370.3812822669335C447.56116007979483 391.56060942006735 461.69844980757557 432.6602180764164 448.77412543223727 451.25476531241384C435.84980105689897 469.84931254841115 394.39531473322245 471.00192695103226 377.5099505821343 459.63510899972096C360.6245864310461 448.2682910484097 373.8616896982696 422.42820011509974 367.7243775070139 396.6940391461196C361.58706531575825 370.9598781771395 339.1799404090557 345.9236455504388 348.0508520641072 336.11113634861624C356.92176371915866 326.2986271467937 391.2431168846669 342.45438124438874 410.3047534512608 349.5939949773715C429.36639001785477 356.73360871035425 431.5322550877213 349.2019551137997 439.54670758375806 370.3812822669335C447.56116007979483 391.56060942006735 461.69844980757557 432.6602180764164 448.77412543223727 451.25476531241384 "></path><path d="M429.66003068781856 377.7859617002002C435.6708700598461 393.6704570650505 446.2738373556817 424.49516355731237 436.58059407417795 438.4410739843104C426.8873507926742 452.3869844113084 395.79648604991684 453.2514452132742 383.13246293660075 444.72633174979075C370.4684398232846 436.20121828630727 380.39626727370216 416.8211500863248 375.7932831302604 397.5205293595897C371.19029898681873 378.21990863285464 354.38495530679177 359.4427341628291 361.0381390480804 352.0833522614622C367.691322789369 344.7239703600953 393.43233766350016 356.84078593329156 407.72856508844563 362.1954962330286C422.0247925133911 367.5502065327657 423.649191315791 361.9014663353498 429.66003068781856 377.7859617002002C435.6708700598461 393.6704570650505 446.2738373556817 424.49516355731237 436.58059407417795 438.4410739843104 "></path><path d="M419.773353791879 385.1906258746777C423.7805800398974 395.7802894512446 430.8492249037878 416.33009377941914 424.38706271611863 425.62736739741786C417.9249005284495 434.9246410154165 397.1976573666112 435.50094821672707 388.7549752910671 429.8175392410714C380.3122932155231 424.1341302654158 386.93084484913476 411.2140847987608 383.862188753507 398.34700431427075C380.79353265787915 385.47992382978066 369.58997020452784 372.9618075164303 374.0254260320536 368.05555291551906C378.46088185957933 363.1492983146078 395.6215584423334 371.2271753634053 405.1523767256304 374.7969822298967C414.6831950089274 378.36678909638806 415.76612754386065 374.6009622981108 419.773353791879 385.1906258746777C423.7805800398974 395.7802894512446 430.8492249037878 416.33009377941914 424.38706271611863 425.62736739741786 "></path><path d="M409.8866768959395 392.5953205667334C411.8902900199487 397.8901523550168 415.4246124518939 408.1650545191041 412.1935313580593 412.81369132810346C408.96245026422474 417.4623281371028 398.5988286833056 417.75048173775804 394.37748764553356 414.90877724993027C390.1561466077615 412.06707276210244 393.4654224245674 405.60705002877495 391.9310943767535 399.1735097865299C390.3967663289396 392.73996954428486 384.7949851022639 386.4809113876097 387.0127130160268 384.0277840871541C389.23044092978967 381.5746567866984 397.81077922116674 385.6135953110972 402.57618836281523 387.3984987443429C407.3415975044637 389.18340217758856 407.8830637719303 387.30048877844996 409.8866768959395 392.5953205667334C411.8902900199487 397.8901523550168 415.4246124518939 408.1650545191041 412.1935313580593 412.81369132810346 "></path></g></svg>