<?xml version="1.0" encoding="UTF-8"?>
<svg width="100" height="100" viewBox="0 0 100 100" fill="none" xmlns="http://www.w3.org/2000/svg">
<g id="android">
<path id="Vector" d="M73 64.1002C70.7 64.1002 68.8 62.2002 68.8 59.9002C68.8 57.6002 70.7 55.7002 73 55.7002C75.3 55.7002 77.2 57.6002 77.2 59.9002C77.2 62.2002 75.3 64.1002 73 64.1002ZM27 64.1002C24.7 64.1002 22.8 62.2002 22.8 59.9002C22.8 57.6002 24.7 55.7002 27 55.7002C29.3 55.7002 31.2 57.6002 31.2 59.9002C31.2 62.2002 29.3 64.1002 27 64.1002ZM74.5 39.0002L82.8 24.6002C83 24.2002 83.1 23.7002 83 23.3002C82.9 22.9002 82.6 22.5002 82.2 22.2002C81.8 22.0002 81.3 21.9002 80.9 22.0002C80.5 22.1002 80.1 22.4002 79.8 22.8002L71.4 37.4002C65 34.5002 57.7 32.9002 50 32.9002C42.3 32.9002 35 34.5002 28.6 37.5002L20.2 22.9002C20 22.5002 19.6 22.2002 19.1 22.1002C18.7 22.0002 18.2 22.0002 17.8 22.3002C17.4 22.5002 17.1 22.9002 17 23.4002C16.9 23.8002 16.9 24.3002 17.2 24.7002L25.5 39.0002C11.2 46.8002 1.4 61.2002 0 78.3002H100C98.6 61.2002 88.8 46.8002 74.5 39.0002Z" fill="#A2A2A2"/>
</g>
</svg>

