<?xml version="1.0" encoding="UTF-8"?>
<svg width="100" height="100" viewBox="0 0 100 100" fill="none" xmlns="http://www.w3.org/2000/svg">
<g id="csharp" clip-path="url(#clip0_790_7747)">
<path id="Vector" d="M94.1 29.1002C94.1 27.4002 93.7 26.0002 93 24.7002C92.3 23.5002 91.2 22.4002 89.8 21.6002C78.1 14.8002 66.4 8.10016 54.6 1.30016C51.4 -0.499844 48.4 -0.499844 45.2 1.40016C40.5 4.20016 17.2 17.5002 10.2 21.6002C7.4 23.3002 6 25.8002 6 29.1002C6 42.7002 6 56.3002 6 69.9002C6 71.5002 6.3 73.0001 7 74.2001C7.7 75.5001 8.8 76.5002 10.2 77.4002C17.2 81.4002 40.5 94.8002 45.2 97.6002C48.3 99.5002 51.4 99.5001 54.6 97.7001C66.3 90.9001 78.1 84.2002 89.8 77.4002C91.3 76.6002 92.3 75.5001 93 74.2001C93.7 73.0001 94 71.5002 94 69.9002C94.1 69.9002 94.1 42.7002 94.1 29.1002Z" fill="#909090"/>
<path id="Vector_2" d="M50.2 49.3999L7 74.1999C7.7 75.4999 8.8 76.4999 10.2 77.3999C17.2 81.3999 40.5 94.7999 45.2 97.5999C48.3 99.4999 51.4 99.4999 54.6 97.6999C66.3 90.8999 78.1 84.1999 89.8 77.3999C91.3 76.5999 92.3 75.4999 93 74.1999L50.2 49.3999Z" fill="#171717"/>
<path id="Vector_3" d="M94.0999 29.1002C94.0999 27.4002 93.7 26.0002 93 24.7002L50.2 49.4002L93.0999 74.2002C93.7999 73.0002 94.0999 71.5002 94.0999 69.9002C94.0999 69.9002 94.0999 42.7002 94.0999 29.1002Z" fill="#212121"/>
<path id="Vector_4" d="M75.6 40.1001V44.7001H80.2V40.1001H82.5V44.7001H87.1V47.0001H82.5V51.6001H87.1V54.0001H82.5V58.6001H80.2V54.0001H75.6V58.6001H73.3V54.0001H68.7V51.7001H73.3V47.1001H68.7V44.8001H73.3V40.2001H75.6V40.1001ZM80.2 47.1001H75.6V51.7001H80.2V47.1001Z" fill="white"/>
<path id="Vector_5" d="M50.3 16.7998C62.4 16.7998 73 23.3998 78.7 33.1998L78.6 32.9998L64.3 41.1998C61.5 36.3998 56.3 33.1998 50.4 33.1998H50.2C41.2 33.1998 33.9 40.4998 33.9 49.4998C33.9 52.2998 34.6 55.0998 36.1 57.5998C38.9 62.4998 44.2 65.7998 50.3 65.7998C56.4 65.7998 61.7 62.3998 64.5 57.4998L64.4 57.5998L78.6 65.7998C73 75.4998 62.6 82.0998 50.6 82.1998H50.2C38 82.1998 27.4 75.5998 21.8 65.6998C19 60.8998 17.5 55.2998 17.5 49.3998C17.5 31.3998 32.2 16.7998 50.3 16.7998Z" fill="white"/>
</g>
<defs>
<clipPath id="clip0_790_7747">
<rect width="100" height="100" fill="white"/>
</clipPath>
</defs>
</svg>

