<?xml version="1.0" encoding="UTF-8" standalone="no"?>
<svg width="100" height="100" viewBox="0 0 100 100" fill="none" xmlns="http://www.w3.org/2000/svg">
<g id="rust" clip-path="url(#clip0_790_10508)">
<path id="Vector" d="M99.3 48.8L95.1 46.2C95.1 45.8 95 45.4 95 45L98.6 41.6C98.8 41.4 98.9 41.2 99 41C99.1 40.8 99.1 40.5 99 40.3C99 40.1 98.8 39.8 98.7 39.6C98.5 39.4 98.3 39.3 98.1 39.2L93.5 37.5C93.4 37.1 93.3 36.7 93.1 36.3L96 32.3C96.1 32.1 96.2 31.9 96.3 31.6C96.3 31.4 96.3 31.1 96.2 30.9C96.1 30.7 96 30.5 95.8 30.3C95.6 30.1 95.4 30 95.1 30L90.2 29.2C90 28.8 89.8 28.5 89.6 28.1L91.6 23.6C91.7 23.4 91.7 23.1 91.7 22.9C91.7 22.7 91.6 22.4 91.5 22.2C91.4 22 91.2 21.8 91 21.7C90.8 21.6 90.5 21.5 90.3 21.5L85.4 21.7C85.1 21.4 84.9 21.1 84.6 20.8L85.7 16C85.8 15.8 85.8 15.5 85.7 15.3C85.6 15.1 85.5 14.8 85.3 14.7C85.1 14.5 84.9 14.4 84.7 14.3C84.5 14.2 84.2 14.2 84 14.3L79.2 15.4C78.9 15.1 78.6 14.9 78.3 14.6L78.5 9.7C78.5 9.5 78.5 9.2 78.3 9C78.2 8.8 78 8.6 77.8 8.5C77.6 8.4 77.4 8.3 77.1 8.3C76.8 8.3 76.6 8.3 76.4 8.4L71.9 10.4C71.5 10.2 71.2 10 70.8 9.8L70 4.9C70 4.7 69.9 4.4 69.7 4.2C69.5 4 69.3 3.9 69.1 3.8C68.9 3.7 68.6 3.7 68.4 3.7C68.2 3.7 67.9 3.8 67.7 4L63.7 6.9C63.3 6.8 62.9 6.7 62.5 6.5L60.8 1.9C60.7 1.7 60.6 1.5 60.4 1.3C60.2 1.1 60 1 59.8 1C59.6 1 59.3 1 59.1 1C58.9 1.1 58.7 1.2 58.5 1.4L55.1 5C54.7 5 54.3 4.9 53.9 4.9L51.3 0.7C51.2 0.5 51 0.3 50.8 0.2C50.5 0.1 50.2 0 50 0C49.8 0 49.5 0.1 49.3 0.2C49.1 0.3 48.9 0.5 48.8 0.7L46.2 4.9C45.8 4.9 45.4 5 45 5L41.6 1.4C41.4 1.2 41.2 1.1 41 1C40.8 0.9 40.5 0.9 40.3 1C40.1 1 39.8 1.2 39.6 1.3C39.4 1.4 39.3 1.7 39.2 1.9L37.5 6.5C37.1 6.6 36.7 6.7 36.3 6.9L32.3 4C32.1 3.9 31.9 3.8 31.6 3.7C31.4 3.7 31.1 3.7 30.9 3.8C30.7 3.9 30.5 4 30.3 4.2C30.1 4.4 30 4.7 30 4.9L29.2 9.8C28.8 10 28.5 10.2 28.1 10.4L23.6 8.4C23.4 8.3 23.1 8.3 22.9 8.3C22.7 8.3 22.4 8.4 22.2 8.5C22 8.6 21.9 8.8 21.7 9C21.6 9.2 21.5 9.5 21.5 9.7L21.7 14.6C21.4 14.9 21.1 15.1 20.8 15.4L16 14.3C15.8 14.2 15.5 14.2 15.3 14.3C15.1 14.4 14.8 14.5 14.7 14.7C14.5 14.9 14.4 15.1 14.3 15.3C14.2 15.5 14.2 15.8 14.3 16L15.4 20.8C15.1 21.1 14.9 21.4 14.6 21.7L9.7 21.5C9.5 21.5 9.2 21.5 9 21.7C8.8 21.8 8.6 22 8.5 22.2C8.4 22.4 8.3 22.6 8.3 22.9C8.3 23.1 8.3 23.4 8.4 23.6L10.4 28.1C10.2 28.5 10 28.8 9.8 29.2L4.9 30C4.7 30 4.4 30.1 4.2 30.3C4 30.5 3.9 30.7 3.8 30.9C3.7 31.1 3.7 31.4 3.7 31.6C3.7 31.8 3.8 32.1 4 32.3L6.9 36.3C6.8 36.7 6.7 37.1 6.5 37.5L1.9 39.2C1.7 39.3 1.5 39.4 1.3 39.6C1.1 39.8 1 40 1 40.2C1 40.4 1 40.7 1 40.9C1.1 41.1 1.2 41.3 1.4 41.5L5 45C5 45.4 4.9 45.8 4.9 46.2L0.7 48.8C0.5 48.9 0.3 49.1 0.2 49.3C0.1 49.5 0 49.8 0 50C0 50.5 0.3 51 0.7 51.2L4.9 53.8C4.9 54.2 5 54.6 5 55L1.4 58.4C1.2 58.6 1.1 58.8 1 59C0.9 59.2 0.9 59.5 1 59.7C1 59.9 1.2 60.2 1.3 60.4C1.4 60.6 1.7 60.7 1.9 60.8L6.5 62.5C6.6 62.9 6.7 63.3 6.9 63.7L4 67.7C3.9 67.9 3.8 68.1 3.7 68.4C3.7 68.6 3.7 68.9 3.8 69.1C3.9 69.3 4 69.5 4.2 69.7C4.4 69.9 4.7 70 4.9 70L9.8 70.8C10 71.2 10.2 71.5 10.4 71.9L8.4 76.4C8.3 76.6 8.3 76.9 8.3 77.1C8.3 77.3 8.4 77.6 8.5 77.8C8.6 78 8.7 78.2 9 78.3C9.2 78.4 9.5 78.5 9.7 78.5L14.6 78.3C14.9 78.6 15.1 78.9 15.4 79.2L14.3 84C14.2 84.2 14.2 84.5 14.3 84.7C14.4 84.9 14.5 85.2 14.7 85.3C14.9 85.5 15.1 85.6 15.3 85.7C15.5 85.8 15.8 85.8 16 85.7L20.8 84.6C21.1 84.9 21.4 85.1 21.7 85.4L21.5 90.3C21.5 90.5 21.5 90.8 21.7 91C21.8 91.2 22 91.4 22.2 91.5C22.4 91.6 22.6 91.7 22.9 91.7C23.1 91.7 23.4 91.7 23.6 91.6L28.1 89.6C28.5 89.8 28.8 90 29.2 90.2L30 95.1C30 95.3 30.1 95.6 30.3 95.8C30.5 96 30.7 96.1 30.9 96.2C31.1 96.3 31.4 96.3 31.6 96.3C31.8 96.3 32.1 96.2 32.3 96L36.3 93.1C36.7 93.2 37.1 93.3 37.5 93.5L39.2 98.1C39.3 98.3 39.4 98.5 39.6 98.7C39.8 98.9 40 99 40.3 99C40.5 99 40.8 99 41 99C41.2 98.9 41.4 98.8 41.6 98.6L45 95C45.4 95 45.8 95.1 46.2 95.1L48.8 99.3C48.9 99.5 49.1 99.7 49.3 99.8C49.5 99.9 49.8 100 50 100C50.2 100 50.5 99.9 50.7 99.8C50.9 99.7 51.1 99.5 51.2 99.3L53.8 95.1C54.2 95.1 54.6 95 55 95L58.4 98.6C58.6 98.8 58.8 98.9 59 99C59.2 99.1 59.5 99.1 59.7 99C59.9 99 60.2 98.8 60.4 98.7C60.6 98.6 60.7 98.3 60.8 98.1L62.5 93.5C62.9 93.4 63.3 93.3 63.7 93.1L67.7 96C67.9 96.1 68.1 96.2 68.4 96.3C68.6 96.3 68.9 96.3 69.1 96.2C69.3 96.1 69.5 96 69.7 95.8C69.9 95.6 70 95.4 70 95.1L70.8 90.2C71.2 90 71.5 89.8 71.9 89.6L76.4 91.6C76.6 91.7 76.9 91.7 77.1 91.7C77.3 91.7 77.6 91.6 77.8 91.5C78 91.4 78.2 91.2 78.3 91C78.4 90.8 78.5 90.5 78.5 90.3L78.3 85.4C78.6 85.1 78.9 84.9 79.2 84.6L84 85.7C84.5 85.8 85 85.7 85.4 85.3C85.6 85.1 85.7 84.9 85.8 84.7C85.9 84.5 85.9 84.2 85.8 84L84.7 79.2C85 78.9 85.2 78.6 85.5 78.3L90.4 78.5C90.6 78.5 90.9 78.5 91.1 78.3C91.3 78.2 91.5 78 91.6 77.8C91.7 77.6 91.8 77.4 91.8 77.1C91.8 76.9 91.8 76.6 91.7 76.4L89.7 71.9C89.9 71.5 90.1 71.2 90.3 70.8L95.2 70C95.4 70 95.7 69.9 95.9 69.7C96.1 69.5 96.2 69.3 96.3 69.1C96.4 68.9 96.4 68.6 96.4 68.4C96.4 68.2 96.3 67.9 96.1 67.7L93.2 63.7C93.3 63.3 93.4 62.9 93.6 62.5L98.2 60.8C98.4 60.7 98.6 60.6 98.8 60.4C99 60.2 99.1 60 99.1 59.7C99.1 59.5 99.1 59.2 99.1 59C99 58.8 98.9 58.6 98.7 58.4L95 55.1C95 54.7 95.1 54.3 95.1 53.9L99.3 51.3C99.5 51.2 99.7 51 99.8 50.8C99.9 50.6 100 50.3 100 50.1C100 49.5 99.7 49 99.3 48.8ZM71.2 83.6C69.6 83.3 68.6 81.7 68.9 80.1C69.2 78.5 70.8 77.5 72.4 77.8C74 78.1 75 79.7 74.7 81.3C74.4 82.9 72.8 83.9 71.2 83.6ZM69.8 74C69.5 73.9 69.1 73.9 68.7 74C68.4 74.1 68 74.2 67.7 74.4C67.4 74.6 67.1 74.8 66.9 75.1C66.7 75.4 66.6 75.7 66.5 76.1L65 83.1C60.4 85.2 55.3 86.3 49.9 86.3C44.4 86.3 39.2 85.1 34.5 82.9L33 75.9C32.7 74.4 31.2 73.5 29.8 73.8L23.7 75.1C22.6 73.9 21.5 72.7 20.5 71.4H50.4C50.7 71.4 51 71.3 51 71V60.4C51 60.1 50.8 60 50.4 60H41.7V53.3H51.2C52.1 53.3 55.8 53.5 57 58.3C57.4 59.8 58.2 64.6 58.8 66.1C59.4 67.8 61.6 71.3 64.1 71.3H79C79.2 71.3 79.3 71.3 79.5 71.2C78.5 72.6 77.3 73.9 76.1 75.2L69.8 74ZM28.5 83.5C26.9 83.8 25.3 82.8 25 81.2C24.7 79.6 25.7 78 27.3 77.7C28.9 77.4 30.5 78.4 30.8 80C31.1 81.5 30.1 83.1 28.5 83.5ZM17.1 37.5C17.8 39 17.1 40.8 15.6 41.4C14.1 42.1 12.3 41.4 11.7 39.9C11 38.4 11.7 36.6 13.2 36C13.6 35.8 13.9 35.8 14.3 35.7C14.7 35.7 15.1 35.8 15.4 35.9C15.8 36 16.1 36.3 16.4 36.5C16.7 36.8 17 37.1 17.1 37.5ZM13.6 45.8L20 43C20.7 42.7 21.2 42.2 21.4 41.5C21.7 40.8 21.6 40.1 21.3 39.4L20 36.4H25.2V59.8H14.8C13.9 56.5 13.4 53.2 13.4 49.8C13.4 48.4 13.5 47 13.6 45.8ZM41.7 43.5V36.6H54C54.6 36.6 58.5 37.3 58.5 40.2C58.5 42.6 55.5 43.5 53.1 43.5H41.7ZM86.6 49.7C86.6 50.6 86.6 51.5 86.5 52.4H82.7C82.3 52.4 82.2 52.6 82.2 53V54.7C82.2 58.8 79.9 59.6 77.9 59.9C76 60.1 73.9 59.1 73.6 57.9C72.5 51.6 70.6 50.2 67.6 47.9C71.3 45.6 75.1 42.1 75.1 37.5C75.1 32.5 71.7 29.4 69.4 27.9C66.1 25.7 62.5 25.3 61.6 25.3H22.8C28.1 19.4 35.2 15.3 43.3 13.8L47.9 18.6C48.1 18.9 48.4 19.1 48.8 19.2C49.1 19.3 49.5 19.4 49.8 19.4C50.2 19.4 50.5 19.3 50.8 19.2C51.1 19.1 51.4 18.9 51.7 18.6L56.8 13.7C67.5 15.7 76.6 22.4 81.8 31.5L78.3 39.4C77.7 40.8 78.3 42.4 79.7 43L86.4 46C86.5 47.2 86.6 48.5 86.6 49.7ZM47.8 9.7C49 8.5 50.9 8.6 52 9.8C53.1 11 53.1 12.9 51.9 14C50.7 15.1 48.8 15.1 47.7 13.9C47.2 13.3 46.9 12.6 46.9 11.8C46.9 11 47.2 10.2 47.8 9.7ZM82.6 37.6C82.8 37.2 83 36.9 83.3 36.7C83.6 36.4 83.9 36.2 84.3 36.1C84.7 36 85.1 35.9 85.4 35.9C85.7 35.9 86.2 36 86.5 36.2C88 36.9 88.7 38.6 88 40.1C87.8 40.5 87.6 40.8 87.3 41C87 41.3 86.7 41.5 86.3 41.6C85.9 41.7 85.5 41.8 85.2 41.8C84.8 41.8 84.4 41.7 84.1 41.5C82.6 40.9 81.9 39.1 82.6 37.6Z" fill="black"/>
</g>
<defs>
<clipPath id="clip0_790_10508">
<rect width="100" height="100" fill="white"/>
</clipPath>
</defs>
</svg>
