<svg xmlns="http://www.w3.org/2000/svg" version="1.1" xmlns:xlink="http://www.w3.org/1999/xlink" xmlns:svgjs="http://svgjs.dev/svgjs" viewBox="0 0 1422 800" opacity="0.72"><defs><linearGradient x1="50%" y1="0%" x2="50%" y2="100%" id="oooscillate-grad"><stop stop-color="hsl(353, 98%, 41%)" stop-opacity="1" offset="0%"></stop><stop stop-color="#b90000" stop-opacity="1" offset="100%"></stop></linearGradient></defs><g stroke-width="2" stroke="url(#oooscillate-grad)" fill="none" stroke-linecap="round"><path d="M 0 598 Q 355.5 35 711 400 Q 1066.5 765 1422 598" stroke-dasharray="10 7" opacity="0.55"></path><path d="M 0 572 Q 355.5 35 711 400 Q 1066.5 765 1422 572" stroke-dasharray="19 4" opacity="0.23"></path><path d="M 0 546 Q 355.5 35 711 400 Q 1066.5 765 1422 546" stroke-dasharray="36 20" opacity="0.63"></path><path d="M 0 520 Q 355.5 35 711 400 Q 1066.5 765 1422 520" stroke-dasharray="29 39" opacity="0.36"></path><path d="M 0 494 Q 355.5 35 711 400 Q 1066.5 765 1422 494" stroke-dasharray="3 19" opacity="0.32"></path><path d="M 0 468 Q 355.5 35 711 400 Q 1066.5 765 1422 468" stroke-dasharray="33 15" opacity="0.53"></path><path d="M 0 442 Q 355.5 35 711 400 Q 1066.5 765 1422 442" stroke-dasharray="34 11" opacity="0.64"></path><path d="M 0 416 Q 355.5 35 711 400 Q 1066.5 765 1422 416" stroke-dasharray="3 18" opacity="0.36"></path><path d="M 0 390 Q 355.5 35 711 400 Q 1066.5 765 1422 390" stroke-dasharray="19 32" opacity="0.11"></path><path d="M 0 364 Q 355.5 35 711 400 Q 1066.5 765 1422 364" stroke-dasharray="28 21" opacity="0.31"></path><path d="M 0 338 Q 355.5 35 711 400 Q 1066.5 765 1422 338" stroke-dasharray="7 40" opacity="0.29"></path><path d="M 0 312 Q 355.5 35 711 400 Q 1066.5 765 1422 312" stroke-dasharray="33 35" opacity="0.09"></path><path d="M 0 286 Q 355.5 35 711 400 Q 1066.5 765 1422 286" stroke-dasharray="33 37" opacity="0.98"></path><path d="M 0 260 Q 355.5 35 711 400 Q 1066.5 765 1422 260" stroke-dasharray="33 38" opacity="0.13"></path><path d="M 0 234 Q 355.5 35 711 400 Q 1066.5 765 1422 234" stroke-dasharray="29 28" opacity="0.67"></path><path d="M 0 208 Q 355.5 35 711 400 Q 1066.5 765 1422 208" stroke-dasharray="9 16" opacity="0.30"></path><path d="M 0 182 Q 355.5 35 711 400 Q 1066.5 765 1422 182" stroke-dasharray="4 20" opacity="0.39"></path><path d="M 0 156 Q 355.5 35 711 400 Q 1066.5 765 1422 156" stroke-dasharray="36 34" opacity="0.62"></path><path d="M 0 130 Q 355.5 35 711 400 Q 1066.5 765 1422 130" stroke-dasharray="10 10" opacity="0.54"></path><path d="M 0 104 Q 355.5 35 711 400 Q 1066.5 765 1422 104" stroke-dasharray="25 30" opacity="0.99"></path><path d="M 0 78 Q 355.5 35 711 400 Q 1066.5 765 1422 78" stroke-dasharray="13 13" opacity="0.14"></path><path d="M 0 52 Q 355.5 35 711 400 Q 1066.5 765 1422 52" stroke-dasharray="19 18" opacity="0.77"></path></g></svg>